<?xml version="1.0" encoding="UTF-8" standalone="no"?>
<!-- Created with Inkscape (http://www.inkscape.org/) -->

<svg
   xmlns:dc="http://purl.org/dc/elements/1.1/"
   xmlns:cc="http://creativecommons.org/ns#"
   xmlns:rdf="http://www.w3.org/1999/02/22-rdf-syntax-ns#"
   xmlns:svg="http://www.w3.org/2000/svg"
   xmlns="http://www.w3.org/2000/svg"
   xmlns:sodipodi="http://sodipodi.sourceforge.net/DTD/sodipodi-0.dtd"
   xmlns:inkscape="http://www.inkscape.org/namespaces/inkscape"
   width="277.61935"
   height="348.31348"
   id="svg2"
   version="1.1"
   inkscape:version="0.48.4 r9939"
   sodipodi:docname="EtDielektrika.svg">
  <sodipodi:namedview
     id="base"
     pagecolor="#ffffff"
     bordercolor="#666666"
     borderopacity="1.0"
     inkscape:pageopacity="0.0"
     inkscape:pageshadow="2"
     inkscape:zoom="3.1764563"
     inkscape:cx="95.209008"
     inkscape:cy="190.3439"
     inkscape:document-units="px"
     inkscape:current-layer="g3766"
     showgrid="false"
     inkscape:window-width="650"
     inkscape:window-height="716"
     inkscape:window-x="65"
     inkscape:window-y="24"
     inkscape:window-maximized="0"
     fit-margin-top="0"
     fit-margin-left="0"
     fit-margin-right="0"
     fit-margin-bottom="0" />
  <defs
     id="defs4" />
  <metadata
     id="metadata7">
    <rdf:RDF>
      <cc:Work
         rdf:about="">
        <dc:format>image/svg+xml</dc:format>
        <dc:type
           rdf:resource="http://purl.org/dc/dcmitype/StillImage" />
        <dc:title></dc:title>
      </cc:Work>
    </rdf:RDF>
  </metadata>
  <g
     id="layer1"
     inkscape:groupmode="layer"
     inkscape:label="Layer 1"
     transform="translate(-141.92776,-120.70357)">
    <g
       id="g3980"
       transform="translate(1.7667357,0)">
      <g
         id="g3976">
        <g
           id="g3973">
          <rect
             style="fill:#cccccc;fill-opacity:1;stroke:none"
             id="rect2985"
             width="140.04134"
             height="347.68884"
             x="140.16103"
             y="121.3282"
             ry="0" />
        </g>
      </g>
      <rect
         ry="0"
         y="120.70357"
         x="277.73904"
         height="347.68884"
         width="140.04134"
         id="rect3755"
         style="fill:#999999;fill-opacity:1;stroke:none" />
    </g>
    <g
       id="g3953"
       transform="translate(4.2627012,0)">
      <g
         transform="translate(-573.13653,-110.89035)"
         id="g3766">
        <g
           transform="translate(578.12301,-31.648193)"
           id="g3890">
          <path
             style="font-style:normal;font-variant:normal;font-weight:normal;font-stretch:normal;letter-spacing:normal;word-spacing:normal;text-anchor:start;fill:#000000;stroke:#000000;stroke-width:0;stroke-linecap:butt;stroke-linejoin:miter;stroke-miterlimit:10.43299961;stroke-opacity:1;stroke-dasharray:none;stroke-dashoffset:0"
             inkscape:connector-curvature="0"
             d="m 359.25944,345.51497 0.15945,-0.0106 0.15945,0 0.15944,0 0.0744,0 0.085,-0.0106 0.0744,0 0.0744,-0.0106 0.0744,-0.0106 0.0744,-0.0106 0.0744,-0.0106 0.0744,-0.0213 0.0638,-0.0106 0.0744,-0.0213 0.0638,-0.0213 0.0532,-0.0319 0.0638,-0.0213 0.0531,-0.0319 0.0532,-0.0319 0.0425,-0.0425 0.0531,-0.0425 0.0319,-0.0425 0.0425,-0.0532 0.0106,-0.0213 0.0213,-0.0319 0.0106,-0.0213 0.0213,-0.0319 0.0106,-0.0319 0.0106,-0.0319 0.0106,-0.0319 0,-0.0319 0.0106,-0.0425 0.0106,-0.0319 0,-0.0425 0.0106,-0.0319 0,-0.0425 0,-0.0425 c 0,-0.73346 -0.64842,-0.73346 -1.54133,-0.73346 h -8.57835 c 1.26496,-4.49646 4.24134,-7.5685 9.05669,-7.5685 h 1.64764 c 0.89291,0 1.73268,0 1.73268,-0.91418 0,-0.73346 -0.69095,-0.73346 -1.59449,-0.73346 h -1.83898 c -6.88819,0 -13.98897,5.30433 -13.98897,13.3937 0,5.8252 3.97559,10.01338 9.58819,10.01338 3.44409,0 6.89881,-2.11535 6.89881,-2.71063 0,-0.14881 -0.0744,-0.73346 -0.53149,-0.73346 -0.12756,0 -0.22323,0 -0.70158,0.3189 -1.64763,1.06299 -3.60354,1.9559 -5.57008,1.9559 -3.07204,0 -5.70826,-2.22165 -5.70826,-6.88819 0,-1.83897 0.43582,-3.85866 0.58464,-4.49645 z"
             id="path3773" />
          <path
             style="font-style:normal;font-variant:normal;font-weight:normal;font-stretch:normal;letter-spacing:normal;word-spacing:normal;text-anchor:start;fill:#000000;stroke:#000000;stroke-width:0;stroke-linecap:butt;stroke-linejoin:miter;stroke-miterlimit:10.43299961;stroke-opacity:1;stroke-dasharray:none;stroke-dashoffset:0"
             inkscape:connector-curvature="0"
             d="m 383.61259,358.64292 h -1.26496 c -0.1063,0.8185 -0.48898,3.00827 -0.96733,3.38032 -0.27637,0.21259 -3.13582,0.21259 -3.65669,0.21259 h -6.82441 c 3.89055,-3.43346 5.1874,-4.46456 7.40906,-6.20787 2.74252,-2.20039 5.30433,-4.48583 5.30433,-8.01496 0,-4.4752 -3.92244,-7.21772 -8.67402,-7.21772 -4.58149,0 -7.70669,3.22087 -7.70669,6.62244 0,1.89213 1.59449,2.08347 1.97716,2.08347 0.88229,0 1.95591,-0.6378 1.95591,-1.96654 0,-0.65905 -0.26575,-1.9559 -2.18976,-1.9559 1.14803,-2.62559 3.66732,-3.4441 5.41063,-3.4441 3.70984,0 5.63385,2.88071 5.63385,5.87835 0,3.2315 -2.29606,5.78268 -3.48661,7.11142 l -8.9185,8.82283 c -0.38268,0.32953 -0.38268,0.41457 -0.38268,1.44567 h 15.26456 z"
             id="path3775" />
        </g>
        <g
           transform="translate(323.97756,42.475367)"
           id="g3880">
          <path
             style="font-style:normal;font-variant:normal;font-weight:normal;font-stretch:normal;letter-spacing:normal;word-spacing:normal;text-anchor:start;fill:#000000;stroke:#000000;stroke-width:0;stroke-linecap:butt;stroke-linejoin:miter;stroke-miterlimit:10.43299961;stroke-opacity:1;stroke-dasharray:none;stroke-dashoffset:0"
             inkscape:connector-curvature="0"
             d="m 425.35629,312.58347 -0.0744,0.0638 -0.0744,0.0744 -0.085,0.0744 -0.085,0.0744 -0.085,0.085 -0.0957,0.085 -0.0957,0.0957 -0.1063,0.085 -0.0957,0.0957 -0.1063,0.0957 -0.2126,0.20197 -0.20196,0.21259 -0.20197,0.2126 -0.0957,0.11693 -0.0957,0.1063 -0.0957,0.1063 -0.085,0.1063 -0.085,0.11693 -0.085,0.1063 -0.0744,0.1063 -0.0744,0.1063 -0.0532,0.10629 -0.0638,0.1063 -0.0425,0.1063 -0.0425,0.0957 -0.0319,0.0957 -0.0319,0.0957 -0.0106,0.0957 -0.0106,0.0957 c 0,0.5315 0.5315,1.06299 1.063,1.06299 0.48897,0 0.75472,-0.38268 1.02047,-0.70157 0.62716,-0.79725 1.83898,-2.27481 4.18819,-3.43347 0.36142,-0.22323 0.89291,-0.48897 0.89291,-1.11614 0,-0.5315 -0.36142,-0.79724 -0.74409,-1.06299 -1.16929,-0.79725 -1.74331,-1.74331 -2.17914,-3.00827 -0.0957,-0.47835 -0.31889,-1.17992 -1.05236,-1.17992 -0.74409,0 -1.06299,0.70157 -1.06299,1.11614 0,0.26575 0.4252,1.95591 1.26496,3.07205 H 408.4123 c -0.89291,0 -1.86023,0 -1.86023,1.06299 0,1.06299 0.96732,1.06299 1.86023,1.06299 z"
             id="path3777" />
          <path
             style="font-style:normal;font-variant:normal;font-weight:normal;font-stretch:normal;letter-spacing:normal;word-spacing:normal;text-anchor:start;fill:#000000;stroke:#000000;stroke-width:0;stroke-linecap:butt;stroke-linejoin:miter;stroke-miterlimit:10.43299961;stroke-opacity:1;stroke-dasharray:none;stroke-dashoffset:0"
             inkscape:connector-curvature="0"
             d="m 426.25983,345.14292 0.0106,-0.0213 0.0106,-0.0319 0.0213,-0.0531 0.0213,-0.0532 0.0213,-0.0532 0.0213,-0.0532 0.0213,-0.0531 0.0106,-0.0532 0.0213,-0.0532 0.0106,-0.0319 0.0106,-0.0213 0.0106,-0.0213 0,-0.0319 0.0106,-0.0213 0.0106,-0.0213 0,-0.0213 0.0106,-0.0213 0.0106,-0.0213 0,-0.0213 0,-0.0106 0.0106,-0.0213 0,-0.0213 0,-0.0106 0,-0.0106 0,-0.0106 c 0,-0.0531 0,-0.58465 -0.62717,-0.58465 -0.47834,0 -0.58464,0.3189 -0.68031,0.64843 -3.45473,7.84488 -5.4,11.37401 -14.46732,11.37401 h -7.72796 c -0.74409,0 -0.83976,0 -1.15866,-0.0425 -0.53149,-0.0532 -0.69094,-0.1063 -0.69094,-0.53149 0,-0.14882 0,-0.26575 0.25511,-1.21182 l 3.61418,-14.46732 h 5.24055 c 4.50708,0 4.50708,1.10551 4.50708,2.43425 0,0.37205 0,1.02048 -0.38267,2.5937 -0.1063,0.26575 -0.14882,0.43583 -0.14882,0.58465 0,0.26575 0.20197,0.58465 0.68031,0.58465 0.4252,0 0.58465,-0.26575 0.79725,-1.05237 l 3.0189,-12.40511 c 0,-0.3189 -0.26575,-0.58465 -0.64843,-0.58465 -0.45709,0 -0.57402,0.3189 -0.73346,0.96732 -1.10552,4.01811 -2.07284,5.22992 -6.94134,5.22992 h -4.97481 l 3.18898,-12.7559 c 0.45709,-1.86024 0.5315,-2.06221 2.84882,-2.06221 h 7.4622 c 6.463,0 8.05748,1.53071 8.05748,5.87835 0,1.26496 0,1.37126 -0.22322,2.8063 0,0.3189 -0.0425,0.69094 -0.0425,0.95669 0,0.26575 0.15944,0.62717 0.62716,0.62717 0.59528,0 0.64843,-0.3189 0.7441,-1.32874 l 1.06299,-9.15236 c 0.15945,-1.42441 -0.0957,-1.42441 -1.42441,-1.42441 h -26.74488 c -1.06299,0 -1.59449,0 -1.59449,1.06299 0,0.57401 0.48898,0.57401 1.47756,0.57401 1.96653,0 3.44409,0 3.44409,0.94607 0,0.22323 0,0.31889 -0.26575,1.28622 l -6.97322,27.99921 c -0.5315,2.07283 -0.64843,2.4874 -4.83662,2.4874 -0.89291,0 -1.47756,0 -1.47756,1.02047 0,0.62717 0.47835,0.62717 1.47756,0.62717 h 27.48898 c 1.23307,0 1.27559,-0.0532 1.64764,-0.89291 z"
             id="path3779" />
          <path
             style="font-style:normal;font-variant:normal;font-weight:normal;font-stretch:normal;letter-spacing:normal;word-spacing:normal;text-anchor:start;fill:#000000;stroke:#000000;stroke-width:0;stroke-linecap:butt;stroke-linejoin:miter;stroke-miterlimit:10.43299961;stroke-opacity:1;stroke-dasharray:none;stroke-dashoffset:0"
             inkscape:connector-curvature="0"
             d="m 440.19566,341.83702 0,-0.0425 0,-0.0425 0,-0.0532 0,-0.0425 0,-0.0319 0,-0.0425 0,-0.0425 0,-0.0319 0,-0.0425 0,-0.0319 -0.0106,-0.0319 0,-0.0319 0,-0.0319 0,-0.0319 -0.0106,-0.0319 0,-0.0213 -0.0106,-0.0319 0,-0.0213 -0.0106,-0.0319 0,-0.0213 -0.0106,-0.0425 -0.0213,-0.0425 -0.0213,-0.0319 -0.0106,-0.0319 -0.0319,-0.0319 -0.0213,-0.0319 -0.0319,-0.0213 -0.0319,-0.0213 -0.0319,-0.0213 -0.0425,-0.0106 -0.0425,-0.0106 -0.0425,-0.0213 -0.0319,0 -0.0213,0 -0.0319,-0.0106 -0.0213,0 -0.0319,-0.0106 -0.0319,0 -0.0319,0 -0.0319,0 -0.0319,0 -0.0425,-0.0106 -0.0319,0 -0.0425,0 -0.0319,0 -0.0425,0 -0.0425,0 -0.0425,0 -0.0425,0 -0.0425,0 -0.0532,0 -0.0425,0 c -2.3811,2.33859 -5.72952,2.37048 -7.26023,2.37048 v 1.32874 c 0.89291,0 3.33779,0 5.35748,-1.03111 v 18.88937 c 0,1.23307 0,1.71142 -3.69921,1.71142 h -1.39252 v 1.32874 c 0.65905,-0.0319 5.21929,-0.14882 6.59055,-0.14882 1.14803,0 5.81456,0.11693 6.63307,0.14882 v -1.32874 h -1.41378 c -3.70984,0 -3.70984,-0.47835 -3.70984,-1.71142 z"
             id="path3781" />
        </g>
        <g
           transform="translate(470.55867,42.475207)"
           id="g3885">
          <path
             style="font-style:normal;font-variant:normal;font-weight:normal;font-stretch:normal;letter-spacing:normal;word-spacing:normal;text-anchor:start;fill:#000000;stroke:#000000;stroke-width:0;stroke-linecap:butt;stroke-linejoin:miter;stroke-miterlimit:10.43299961;stroke-opacity:1;stroke-dasharray:none;stroke-dashoffset:0"
             inkscape:connector-curvature="0"
             d="m 488.2429,312.58347 -0.0744,0.0638 -0.0744,0.0744 -0.085,0.0744 -0.085,0.0744 -0.085,0.085 -0.0957,0.085 -0.0957,0.0957 -0.1063,0.085 -0.0957,0.0957 -0.10629,0.0957 -0.20197,0.20197 -0.2126,0.21259 -0.20197,0.2126 -0.0957,0.11693 -0.0957,0.1063 -0.0957,0.1063 -0.085,0.1063 -0.085,0.11693 -0.085,0.1063 -0.0744,0.1063 -0.0744,0.1063 -0.0532,0.10629 -0.0638,0.1063 -0.0425,0.1063 -0.0425,0.0957 -0.0319,0.0957 -0.0319,0.0957 -0.0106,0.0957 0,0.0957 c 0,0.5315 0.53149,1.06299 1.06299,1.06299 0.47835,0 0.74409,-0.38268 1.00984,-0.70157 0.62717,-0.79725 1.83898,-2.27481 4.17756,-3.43347 0.37205,-0.22323 0.90354,-0.48897 0.90354,-1.11614 0,-0.5315 -0.37204,-0.79724 -0.74409,-1.06299 -1.16929,-0.79725 -1.75394,-1.74331 -2.17913,-3.00827 -0.1063,-0.47835 -0.3189,-1.17992 -1.04174,-1.17992 -0.75472,0 -1.06299,0.70157 -1.06299,1.11614 0,0.26575 0.40394,1.95591 1.25433,3.07205 H 471.2988 c -0.89291,0 -1.86023,0 -1.86023,1.06299 0,1.06299 0.96732,1.06299 1.86023,1.06299 z"
             id="path3783" />
          <path
             style="font-style:normal;font-variant:normal;font-weight:normal;font-stretch:normal;letter-spacing:normal;word-spacing:normal;text-anchor:start;fill:#000000;stroke:#000000;stroke-width:0;stroke-linecap:butt;stroke-linejoin:miter;stroke-miterlimit:10.43299961;stroke-opacity:1;stroke-dasharray:none;stroke-dashoffset:0"
             inkscape:connector-curvature="0"
             d="m 489.01888,345.14292 0.0106,-0.0213 0.0106,-0.0319 0.0213,-0.0531 0.0213,-0.0532 0.0213,-0.0532 0.0213,-0.0532 0.0213,-0.0531 0.0213,-0.0532 0.0213,-0.0532 0,-0.0319 0.0106,-0.0213 0.0106,-0.0213 0.0106,-0.0319 0,-0.0213 0.0106,-0.0213 0.0106,-0.0213 0,-0.0213 0.0106,-0.0213 0,-0.0213 0.0106,-0.0106 0,-0.0213 0,-0.0213 0.0106,-0.0106 0,-0.0106 0,-0.0106 c 0,-0.0531 0,-0.58465 -0.63779,-0.58465 -0.47835,0 -0.57402,0.3189 -0.68032,0.64843 -3.45472,7.84488 -5.38937,11.37401 -14.46732,11.37401 h -7.71732 c -0.7441,0 -0.8504,0 -1.1693,-0.0425 -0.53149,-0.0532 -0.69094,-0.1063 -0.69094,-0.53149 0,-0.14882 0,-0.26575 0.26575,-1.21182 l 3.60354,-14.46732 h 5.25118 c 4.49646,0 4.49646,1.10551 4.49646,2.43425 0,0.37205 0,1.02048 -0.38268,2.5937 -0.0957,0.26575 -0.14882,0.43583 -0.14882,0.58465 0,0.26575 0.20197,0.58465 0.68032,0.58465 0.43582,0 0.58464,-0.26575 0.79724,-1.05237 l 3.02953,-12.40511 c 0,-0.3189 -0.26575,-0.58465 -0.65906,-0.58465 -0.45708,0 -0.57401,0.3189 -0.72283,0.96732 -1.11614,4.01811 -2.07284,5.22992 -6.94134,5.22992 h -4.98543 l 3.18897,-12.7559 c 0.46772,-1.86024 0.5315,-2.06221 2.85945,-2.06221 h 7.45158 c 6.46299,0 8.05748,1.53071 8.05748,5.87835 0,1.26496 0,1.37126 -0.2126,2.8063 0,0.3189 -0.0532,0.69094 -0.0532,0.95669 0,0.26575 0.17008,0.62717 0.62717,0.62717 0.6059,0 0.64842,-0.3189 0.75472,-1.32874 l 1.06299,-9.15236 c 0.14882,-1.42441 -0.1063,-1.42441 -1.43504,-1.42441 h -26.73425 c -1.06299,0 -1.59449,0 -1.59449,1.06299 0,0.57401 0.47835,0.57401 1.47756,0.57401 1.95591,0 3.43347,0 3.43347,0.94607 0,0.22323 0,0.31889 -0.26575,1.28622 l -6.97323,27.99921 c -0.5315,2.07283 -0.64843,2.4874 -4.83661,2.4874 -0.89292,0 -1.47756,0 -1.47756,1.02047 0,0.62717 0.47834,0.62717 1.47756,0.62717 h 27.48897 c 1.23307,0 1.27559,-0.0532 1.64764,-0.89291 z"
             id="path3785" />
          <path
             style="font-style:normal;font-variant:normal;font-weight:normal;font-stretch:normal;letter-spacing:normal;word-spacing:normal;text-anchor:start;fill:#000000;stroke:#000000;stroke-width:0;stroke-linecap:butt;stroke-linejoin:miter;stroke-miterlimit:10.43299961;stroke-opacity:1;stroke-dasharray:none;stroke-dashoffset:0"
             inkscape:connector-curvature="0"
             d="m 509.24762,358.64292 h -1.25433 c -0.1063,0.8185 -0.48897,3.00827 -0.96732,3.38032 -0.27638,0.21259 -3.13583,0.21259 -3.65669,0.21259 h -6.82441 c 3.89055,-3.43346 5.1874,-4.46456 7.40905,-6.20787 2.74252,-2.20039 5.2937,-4.48583 5.2937,-8.01496 0,-4.4752 -3.91181,-7.21772 -8.66338,-7.21772 -4.59213,0 -7.7067,3.22087 -7.7067,6.62244 0,1.89213 1.59449,2.08347 1.97717,2.08347 0.87165,0 1.95591,-0.6378 1.95591,-1.96654 0,-0.65905 -0.26575,-1.9559 -2.18977,-1.9559 1.14803,-2.62559 3.66732,-3.4441 5.41063,-3.4441 3.70984,0 5.63386,2.88071 5.63386,5.87835 0,3.2315 -2.29606,5.78268 -3.48661,7.11142 l -8.91851,8.82283 c -0.38268,0.32953 -0.38268,0.41457 -0.38268,1.44567 h 15.26457 z"
             id="path3787" />
        </g>
        <g
           transform="translate(-24.28278,50.841587)"
           id="g3915">
          <path
             style="font-style:normal;font-variant:normal;font-weight:normal;font-stretch:normal;letter-spacing:normal;word-spacing:normal;text-anchor:start;fill:#000000;stroke:#000000;stroke-width:0;stroke-linecap:butt;stroke-linejoin:miter;stroke-miterlimit:10.43299961;stroke-opacity:1;stroke-dasharray:none;stroke-dashoffset:0"
             inkscape:connector-curvature="0"
             d="m 752.31443,263.02535 0.15945,-0.0106 0.17008,0 0.15945,0 0.0744,0 0.085,-0.0106 0.0744,0 0.0744,-0.0106 0.0744,-0.0106 0.0744,-0.0106 0.0744,-0.0106 0.0744,-0.0213 0.0638,-0.0106 0.0638,-0.0213 0.0638,-0.0213 0.0638,-0.0319 0.0638,-0.0213 0.0532,-0.0319 0.0531,-0.0319 0.0425,-0.0425 0.0425,-0.0425 0.0425,-0.0425 0.0425,-0.0532 0.0106,-0.0213 0.0213,-0.0319 0.0106,-0.0213 0.0106,-0.0319 0.0213,-0.0319 0.0106,-0.0319 0,-0.0319 0.0106,-0.0319 0.0106,-0.0425 0.0106,-0.0319 0,-0.0425 0,-0.0319 0.0106,-0.0425 0,-0.0425 c 0,-0.73346 -0.64842,-0.73346 -1.55197,-0.73346 h -8.56771 c 1.26496,-4.49646 4.24133,-7.5685 9.05669,-7.5685 h 1.63701 c 0.90354,0 1.7433,0 1.7433,-0.91418 0,-0.73346 -0.69094,-0.73346 -1.59448,-0.73346 h -1.83898 c -6.88819,0 -13.98898,5.30433 -13.98898,13.3937 0,5.8252 3.97559,10.01338 9.58819,10.01338 3.43347,0 6.88819,-2.11535 6.88819,-2.71063 0,-0.14881 -0.0638,-0.73346 -0.5315,-0.73346 -0.11692,0 -0.21259,0 -0.69094,0.3189 -1.64764,1.06299 -3.60354,1.9559 -5.57008,1.9559 -3.07205,0 -5.70827,-2.22165 -5.70827,-6.88819 0,-1.83897 0.4252,-3.85866 0.57402,-4.49645 z"
             id="path3769" />
          <path
             style="font-style:normal;font-variant:normal;font-weight:normal;font-stretch:normal;letter-spacing:normal;word-spacing:normal;text-anchor:start;fill:#000000;stroke:#000000;stroke-width:0;stroke-linecap:butt;stroke-linejoin:miter;stroke-miterlimit:10.43299961;stroke-opacity:1;stroke-dasharray:none;stroke-dashoffset:0"
             inkscape:connector-curvature="0"
             d="m 770.37467,259.3474 0,-0.0425 0,-0.0425 0,-0.0532 0,-0.0425 0,-0.0319 0,-0.0425 0,-0.0425 0,-0.0319 0,-0.0425 -0.0106,-0.0319 0,-0.0319 0,-0.0319 0,-0.0319 -0.0106,-0.0319 0,-0.0319 0,-0.0213 -0.0106,-0.0319 0,-0.0213 -0.0106,-0.0319 0,-0.0213 -0.0213,-0.0425 -0.0106,-0.0425 -0.0213,-0.0319 -0.0213,-0.0319 -0.0213,-0.0319 -0.0213,-0.0319 -0.0319,-0.0213 -0.0319,-0.0213 -0.0319,-0.0213 -0.0425,-0.0106 -0.0425,-0.0106 -0.0532,-0.0213 -0.0213,0 -0.0213,0 -0.0319,-0.0106 -0.0319,0 -0.0213,-0.0106 -0.0319,0 -0.0319,0 -0.0319,0 -0.0319,0 -0.0425,-0.0106 -0.0319,0 -0.0425,0 -0.0319,0 -0.0425,0 -0.0425,0 -0.0425,0 -0.0425,0 -0.0532,0 -0.0425,0 -0.0531,0 c -2.37047,2.33859 -5.72953,2.37048 -7.24961,2.37048 v 1.32874 c 0.89292,0 3.3378,0 5.35748,-1.03111 v 18.88937 c 0,1.23307 0,1.71142 -3.69921,1.71142 h -1.39252 v 1.32874 c 0.65906,-0.0319 5.20866,-0.14882 6.59055,-0.14882 1.14803,0 5.81457,0.11693 6.62244,0.14882 v -1.32874 h -1.40315 c -3.70984,0 -3.70984,-0.47835 -3.70984,-1.71142 z"
             id="path3771" />
        </g>
        <path
           transform="translate(569.03368,103.82341)"
           inkscape:connector-curvature="0"
           id="path3919"
           d="m 262.34686,198.69382 0,226.53443 33.31389,0 0,-227.36728 z"
           style="fill:none;stroke:#000000;stroke-width:3;stroke-linecap:butt;stroke-linejoin:miter;stroke-miterlimit:4;stroke-opacity:1;stroke-dasharray:none" />
        <g
           id="g4151">
          <rect
             ry="0"
             y="334.79004"
             x="829.50665"
             height="26.234688"
             width="3.9560244"
             id="rect3933"
             style="fill:#5c39d8;fill-opacity:1;stroke:none" />
          <rect
             transform="matrix(0.70710678,-0.70710678,0.70710678,0.70710678,0,0)"
             style="fill:#5c39d8;fill-opacity:1;stroke:none"
             id="rect4147"
             width="1.9056246"
             height="12.6373"
             x="350.2905"
             y="825.70917"
             ry="0" />
          <rect
             ry="0"
             y="-350.21417"
             x="-825.57971"
             height="12.6373"
             width="1.9056246"
             id="rect4149"
             style="fill:#5c39d8;fill-opacity:1;stroke:none"
             transform="matrix(-0.70710678,-0.70710678,-0.70710678,0.70710678,0,0)" />
        </g>
        <g
           id="g4170"
           transform="matrix(1,0,0,-1,33,820.81144)">
          <rect
             style="fill:#5c39d8;fill-opacity:1;stroke:none"
             id="rect4172"
             width="3.9560244"
             height="26.234688"
             x="829.50665"
             y="334.79004"
             ry="0" />
          <rect
             ry="0"
             y="825.70917"
             x="350.2905"
             height="12.6373"
             width="1.9056246"
             id="rect4174"
             style="fill:#5c39d8;fill-opacity:1;stroke:none"
             transform="matrix(0.70710678,-0.70710678,0.70710678,0.70710678,0,0)" />
          <rect
             transform="matrix(-0.70710678,-0.70710678,-0.70710678,0.70710678,0,0)"
             style="fill:#5c39d8;fill-opacity:1;stroke:none"
             id="rect4176"
             width="1.9056246"
             height="12.6373"
             x="-825.57971"
             y="-350.21417"
             ry="0" />
        </g>
      </g>
    </g>
    <g
       id="g4079"
       transform="matrix(0.47184321,0,0,0.47184321,167.80477,168.83218)">
      <g
         word-spacing="normal"
         letter-spacing="normal"
         font-size-adjust="none"
         font-stretch="normal"
         font-weight="normal"
         font-variant="normal"
         font-style="normal"
         stroke-miterlimit="10.433"
         xml:space="preserve"
         transform="matrix(1.0629921,0,0,-1.0629921,-186.02362,789.27165)"
         id="content"
         style="font-style:normal;font-variant:normal;font-weight:normal;font-stretch:normal;letter-spacing:normal;word-spacing:normal;text-anchor:start;fill:none;stroke:#000000;stroke-linecap:butt;stroke-linejoin:miter;stroke-miterlimit:10.43299961;stroke-opacity:1;stroke-dasharray:none;stroke-dashoffset:0"><g
           id="g4141"
           transform="translate(-209.56145,185.64509)"><path
             style="fill:#000000;stroke-width:0"
             inkscape:connector-curvature="0"
             d="m 491.14,408.93 v -3.28 l 7.31,0.55 v 1.55 c -3.49,0 -3.88,0.34 -3.88,2.78 v 30.25 l -7.17,-0.55 v -1.55 c 3.49,0 3.88,-0.34 3.88,-2.79 v -10.75 c -1.44,1.78 -3.58,3.07 -6.28,3.07 l 0.2,-1.09 c 1.75,0 3.84,-0.75 5.39,-2.98 0.55,-0.85 0.55,-0.96 0.55,-1.85 h 0 v -10.22 c 0,-0.89 0,-1 -0.55,-1.84 -1.5,-2.39 -3.75,-3.48 -5.89,-3.48 -2.24,0 -4.03,1.29 -5.22,3.18 -1.3,2.05 -1.45,4.89 -1.45,6.93 0,1.84 0.09,4.84 1.54,7.07 1.05,1.55 2.94,3.19 5.63,3.19 l -0.2,1.09 c -5.88,0 -11.11,-4.87 -11.11,-11.29 0,-6.33 4.89,-11.27 10.56,-11.27 3.19,0 5.44,1.69 6.69,3.28 z"
             id="path4082" /><path
             style="fill:#000000;stroke-width:0"
             inkscape:connector-curvature="0"
             d="m 524.75,435.84 -0.07,-0.06 -0.07,-0.07 -0.08,-0.07 -0.08,-0.07 -0.08,-0.08 -0.09,-0.08 -0.09,-0.09 -0.1,-0.08 -0.09,-0.09 -0.1,-0.1 -0.19,-0.19 -0.2,-0.19 -0.19,-0.21 -0.09,-0.1 -0.09,-0.1 -0.09,-0.1 -0.08,-0.11 -0.08,-0.1 -0.08,-0.1 -0.07,-0.1 -0.06,-0.1 -0.06,-0.1 -0.06,-0.1 -0.04,-0.1 -0.04,-0.09 -0.03,-0.09 -0.03,-0.1 -0.01,-0.08 0,-0.09 c 0,-0.5 0.5,-1 1,-1 0.45,0 0.7,0.36 0.95,0.66 0.59,0.75 1.73,2.14 3.94,3.23 0.34,0.21 0.84,0.46 0.84,1.05 0,0.5 -0.34,0.75 -0.7,1 -1.1,0.75 -1.64,1.64 -2.05,2.83 -0.09,0.45 -0.3,1.11 -0.98,1.11 -0.71,0 -1,-0.66 -1,-1.05 0,-0.25 0.39,-1.84 1.18,-2.89 h -16.78 c -0.84,0 -1.75,0 -1.75,-1 0,-1 0.91,-1 1.75,-1 z"
             id="path4084" /><path
             style="fill:#000000;stroke-width:0"
             inkscape:connector-curvature="0"
             d="m 519.28,424.84 -0.13,-0.01 -0.13,-0.01 -0.12,-0.02 -0.13,-0.03 -0.12,-0.03 -0.11,-0.04 -0.12,-0.04 -0.11,-0.04 -0.1,-0.05 -0.11,-0.06 -0.1,-0.06 -0.09,-0.06 -0.1,-0.07 -0.08,-0.07 -0.09,-0.07 -0.08,-0.08 -0.08,-0.08 -0.07,-0.08 -0.07,-0.09 -0.06,-0.08 -0.06,-0.09 -0.06,-0.1 -0.05,-0.09 -0.04,-0.1 -0.04,-0.09 -0.04,-0.1 -0.03,-0.1 -0.02,-0.1 -0.02,-0.1 -0.02,-0.11 -0.01,-0.1 0,-0.1 c 0,-0.7 0.44,-1.44 1.55,-1.44 1.09,0 2.28,0.85 2.28,2.78 0,2.25 -2.14,4.28 -5.92,4.28 -6.58,0 -8.42,-5.07 -8.42,-7.26 0,-3.89 3.68,-4.64 5.12,-4.94 2.59,-0.5 5.19,-1.05 5.19,-3.78 0,-1.3 -1.14,-5.48 -7.13,-5.48 -0.7,0 -4.53,0 -5.68,2.64 1.9,-0.25 3.14,1.25 3.14,2.64 0,1.14 -0.8,1.75 -1.85,1.75 -1.29,0 -2.78,-1.05 -2.78,-3.3 0,-2.84 2.84,-4.83 7.13,-4.83 8.06,0 10.01,6.03 10.01,8.27 0,1.79 -0.95,3.04 -1.55,3.64 -1.34,1.39 -2.79,1.64 -4.98,2.09 -1.8,0.39 -3.78,0.75 -3.78,2.99 0,1.45 1.19,4.48 5.58,4.48 1.23,0 3.73,-0.34 4.48,-2.28 z"
             id="path4086" /><path
             style="fill:#000000;stroke-width:0"
             inkscape:connector-curvature="0"
             d="m 534.87,420.92 0,0.04 0,0.04 0,0.05 0,0.04 0,0.03 0,0.04 0,0.04 0,0.03 -0.01,0.04 0,0.03 0,0.03 0,0.03 0,0.03 -0.01,0.03 0,0.03 0,0.02 -0.01,0.03 0,0.02 -0.01,0.03 0,0.02 -0.02,0.04 -0.01,0.04 -0.02,0.03 -0.02,0.03 -0.02,0.03 -0.02,0.03 -0.03,0.02 -0.03,0.02 -0.03,0.02 -0.04,0.01 -0.04,0.01 -0.05,0.02 -0.02,0 -0.02,0 -0.03,0.01 -0.03,0 -0.02,0.01 -0.03,0 -0.03,0 -0.03,0 -0.04,0 -0.03,0.01 -0.03,0 -0.04,0 -0.03,0 -0.04,0 -0.04,0 -0.04,0 -0.04,0 -0.05,0 -0.04,0 -0.05,0 c -2.23,-2.2 -5.39,-2.23 -6.82,-2.23 v -1.25 c 0.84,0 3.14,0 5.04,0.97 v -17.77 c 0,-1.16 0,-1.61 -3.48,-1.61 h -1.31 v -1.25 c 0.62,0.03 4.9,0.14 6.2,0.14 1.08,0 5.47,-0.11 6.23,-0.14 v 1.25 h -1.33 c -3.48,0 -3.48,0.45 -3.48,1.61 z"
             id="path4088" /></g><g
           id="g4135"
           transform="translate(-111.25317,-73.061783)"><path
             style="fill:#000000;stroke-width:0"
             inkscape:connector-curvature="0"
             d="m 581.14,408.93 v -3.28 l 7.31,0.55 v 1.55 c -3.48,0 -3.88,0.34 -3.88,2.78 v 30.25 l -7.17,-0.55 v -1.55 c 3.49,0 3.88,-0.34 3.88,-2.79 v -10.75 c -1.44,1.78 -3.58,3.07 -6.28,3.07 l 0.2,-1.09 c 1.75,0 3.84,-0.75 5.39,-2.98 0.55,-0.85 0.55,-0.96 0.55,-1.85 h 0 v -10.22 c 0,-0.89 0,-1 -0.55,-1.84 -1.5,-2.39 -3.75,-3.48 -5.89,-3.48 -2.23,0 -4.03,1.29 -5.22,3.18 -1.3,2.05 -1.45,4.89 -1.45,6.93 0,1.84 0.09,4.84 1.54,7.07 1.05,1.55 2.94,3.19 5.63,3.19 l -0.2,1.09 c -5.88,0 -11.11,-4.87 -11.11,-11.29 0,-6.33 4.89,-11.27 10.56,-11.27 3.19,0 5.44,1.69 6.69,3.28 z"
             id="path4090" /><path
             style="fill:#000000;stroke-width:0"
             inkscape:connector-curvature="0"
             d="m 614.75,435.84 -0.07,-0.06 -0.07,-0.07 -0.08,-0.07 -0.08,-0.07 -0.08,-0.08 -0.09,-0.08 -0.09,-0.09 -0.1,-0.08 -0.09,-0.09 -0.1,-0.1 -0.19,-0.19 -0.2,-0.19 -0.19,-0.21 -0.09,-0.1 -0.09,-0.1 -0.09,-0.1 -0.08,-0.11 -0.08,-0.1 -0.08,-0.1 -0.07,-0.1 -0.06,-0.1 -0.06,-0.1 -0.06,-0.1 -0.04,-0.1 -0.04,-0.09 -0.03,-0.09 -0.03,-0.1 -0.01,-0.08 0,-0.09 c 0,-0.5 0.5,-1 1,-1 0.45,0 0.7,0.36 0.95,0.66 0.59,0.75 1.73,2.14 3.94,3.23 0.34,0.21 0.84,0.46 0.84,1.05 0,0.5 -0.34,0.75 -0.7,1 -1.1,0.75 -1.64,1.64 -2.05,2.83 -0.09,0.45 -0.3,1.11 -0.98,1.11 -0.71,0 -1,-0.66 -1,-1.05 0,-0.25 0.39,-1.84 1.18,-2.89 h -16.78 c -0.84,0 -1.75,0 -1.75,-1 0,-1 0.91,-1 1.75,-1 z"
             id="path4092" /><path
             style="fill:#000000;stroke-width:0"
             inkscape:connector-curvature="0"
             d="m 609.28,424.84 -0.13,-0.01 -0.13,-0.01 -0.12,-0.02 -0.13,-0.03 -0.12,-0.03 -0.11,-0.04 -0.12,-0.04 -0.11,-0.04 -0.1,-0.05 -0.11,-0.06 -0.1,-0.06 -0.09,-0.06 -0.1,-0.07 -0.08,-0.07 -0.09,-0.07 -0.08,-0.08 -0.08,-0.08 -0.07,-0.08 -0.07,-0.09 -0.06,-0.08 -0.06,-0.09 -0.06,-0.1 -0.05,-0.09 -0.04,-0.1 -0.04,-0.09 -0.04,-0.1 -0.03,-0.1 -0.02,-0.1 -0.02,-0.1 -0.02,-0.11 -0.01,-0.1 0,-0.1 c 0,-0.7 0.44,-1.44 1.55,-1.44 1.09,0 2.28,0.85 2.28,2.78 0,2.25 -2.14,4.28 -5.92,4.28 -6.58,0 -8.42,-5.07 -8.42,-7.26 0,-3.89 3.68,-4.64 5.12,-4.94 2.59,-0.5 5.19,-1.05 5.19,-3.78 0,-1.3 -1.14,-5.48 -7.13,-5.48 -0.7,0 -4.53,0 -5.68,2.64 1.9,-0.25 3.14,1.25 3.14,2.64 0,1.14 -0.8,1.75 -1.85,1.75 -1.29,0 -2.78,-1.05 -2.78,-3.3 0,-2.84 2.84,-4.83 7.13,-4.83 8.06,0 10.01,6.03 10.01,8.27 0,1.79 -0.95,3.04 -1.55,3.64 -1.34,1.39 -2.79,1.64 -4.98,2.09 -1.8,0.39 -3.78,0.75 -3.78,2.99 0,1.45 1.19,4.48 5.58,4.48 1.23,0 3.73,-0.34 4.48,-2.28 z"
             id="path4094" /><path
             style="fill:#000000;stroke-width:0"
             inkscape:connector-curvature="0"
             d="m 630.79,405.11 h -1.19 c -0.09,-0.77 -0.45,-2.83 -0.9,-3.18 -0.27,-0.2 -2.95,-0.2 -3.44,-0.2 h -6.42 c 3.66,3.23 4.88,4.2 6.97,5.84 2.58,2.07 4.98,4.22 4.98,7.54 0,4.21 -3.69,6.79 -8.15,6.79 -4.32,0 -7.25,-3.03 -7.25,-6.23 0,-1.78 1.5,-1.96 1.86,-1.96 0.82,0 1.84,0.6 1.84,1.85 0,0.62 -0.25,1.84 -2.06,1.84 1.07,2.47 3.45,3.24 5.09,3.24 3.48,0 5.3,-2.71 5.3,-5.53 0,-3.04 -2.16,-5.44 -3.28,-6.69 l -8.39,-8.3 c -0.36,-0.31 -0.36,-0.39 -0.36,-1.36 h 14.36 z"
             id="path4096" /></g></g>    </g>
  </g>
</svg>
