<?xml version="1.0" encoding="UTF-8" standalone="no"?>
<!-- Created with Inkscape (http://www.inkscape.org/) -->

<svg
   xmlns:dc="http://purl.org/dc/elements/1.1/"
   xmlns:cc="http://creativecommons.org/ns#"
   xmlns:rdf="http://www.w3.org/1999/02/22-rdf-syntax-ns#"
   xmlns:svg="http://www.w3.org/2000/svg"
   xmlns="http://www.w3.org/2000/svg"
   xmlns:sodipodi="http://sodipodi.sourceforge.net/DTD/sodipodi-0.dtd"
   xmlns:inkscape="http://www.inkscape.org/namespaces/inkscape"
   width="305.8942"
   height="92.095528"
   id="svg2"
   version="1.1"
   inkscape:version="0.48.4 r9939"
   sodipodi:docname="phybotwithtextwhite.svg">
  <defs
     id="defs4" />
  <sodipodi:namedview
     id="base"
     pagecolor="#ffffff"
     bordercolor="#666666"
     borderopacity="1.0"
     inkscape:pageopacity="0.0"
     inkscape:pageshadow="2"
     inkscape:zoom="1.4"
     inkscape:cx="55.541917"
     inkscape:cy="233.41383"
     inkscape:document-units="px"
     inkscape:current-layer="layer1"
     showgrid="false"
     fit-margin-top="0"
     fit-margin-left="0"
     fit-margin-right="0"
     fit-margin-bottom="0"
     inkscape:window-width="960"
     inkscape:window-height="1028"
     inkscape:window-x="960"
     inkscape:window-y="24"
     inkscape:window-maximized="0" />
  <metadata
     id="metadata7">
    <rdf:RDF>
      <cc:Work
         rdf:about="">
        <dc:format>image/svg+xml</dc:format>
        <dc:type
           rdf:resource="http://purl.org/dc/dcmitype/StillImage" />
        <dc:title />
      </cc:Work>
    </rdf:RDF>
  </metadata>
  <g
     inkscape:label="Layer 1"
     inkscape:groupmode="layer"
     id="layer1"
     transform="translate(-31.273794,-235.22139)">
    <g
       transform="translate(75.785603,-59.951467)"
       id="layer1-9"
       inkscape:label="Layer 1">
      <g
         id="g3006">
        <path
           style="fill:#00d400;fill-opacity:1;stroke:none"
           d="m 184.33172,295.17286 0.004,10.24165 c 17.12378,2.8244 30.18257,17.69235 30.18257,35.61623 0,4.40637 -0.78385,8.62899 -2.22899,12.53311 l 8.86837,5.11636 c 2.24837,-5.43879 3.49023,-11.39884 3.49023,-17.64947 0,-23.52842 -17.57748,-42.95178 -40.31614,-45.85788 z m 30.96391,73.73413 -8.8525,-5.11835 c -6.62078,8.14336 -16.72055,13.35014 -28.03291,13.35014 -11.24512,0 -21.28356,-5.14721 -27.90599,-13.20735 l -8.86837,5.11636 c 8.44578,11.07146 21.77422,18.22059 36.77436,18.2206 15.06348,0 28.44319,-7.20995 36.88541,-18.3614 z m -79.55052,-10.06018 8.85745,-5.11637 c -1.48481,-3.95072 -2.30038,-8.23028 -2.30038,-12.69968 1e-5,-17.94327 13.09494,-32.82281 30.24604,-35.62417 l 0.003,-10.23173 c -22.76468,2.88141 -40.37068,22.30821 -40.37069,45.8559 0,6.31434 1.27331,12.33259 3.5646,17.81605 z"
           id="path2987"
           inkscape:connector-curvature="0"
           sodipodi:nodetypes="ccsccscccsccscccsccsc" />
        <path
           sodipodi:nodetypes="ccsccscccsccscccsccsc"
           inkscape:connector-curvature="0"
           id="path3001"
           d="m 115.37989,295.17286 15.33978,10.24165 c 21.35303,2.8244 56.67508,17.69235 83.51427,35.61623 6.59808,4.40637 12.13715,8.62899 16.53804,12.53311 l 16.52962,5.11636 c -5.89568,-5.43879 -13.57839,-11.39884 -22.93805,-17.64947 -35.23142,-23.52842 -81.89339,-42.95178 -108.98366,-45.85788 z m 141.37326,73.73413 -16.51672,-5.11835 c 5.57307,8.14336 3.26993,13.35014 -8.04243,13.35014 -11.24512,0 -28.99098,-5.14721 -47.68267,-13.20735 l -1.20711,5.11636 c 25.02415,11.07146 49.05769,18.22059 64.05785,18.2206 15.06346,0 17.64702,-7.20995 9.3911,-18.3614 z m -94.61464,-10.06018 1.19662,-5.11637 c -7.40063,-3.95072 -14.62439,-8.23028 -21.31688,-12.69968 -26.86819,-17.94327 -36.05384,-32.82281 -23.09751,-35.62417 l -15.31801,-10.23173 c -18.450051,2.88141 -6.966391,22.30821 28.29385,45.8559 9.45509,6.31434 19.74011,12.33259 30.24231,17.81605 z"
           style="fill:#0000ff;fill-opacity:1;stroke:none" />
      </g>
      <text
         xml:space="preserve"
         style="font-size:40px;font-style:normal;font-variant:normal;font-weight:normal;font-stretch:normal;text-align:center;line-height:125%;letter-spacing:0px;word-spacing:0px;writing-mode:lr-tb;text-anchor:middle;fill:#000000;fill-opacity:1;stroke:none;font-family:TG Pagella Math;-inkscape-font-specification:TG Pagella Math"
         x="50.834007"
         y="348.3746"
         id="text3020"
         sodipodi:linespacing="125%"><tspan
           sodipodi:role="line"
           id="tspan3022"
           x="50.834007"
           y="348.3746" /></text>
      <text
         xml:space="preserve"
         style="font-size:40px;font-style:normal;font-variant:normal;font-weight:normal;font-stretch:normal;text-align:center;line-height:125%;letter-spacing:0px;word-spacing:0px;writing-mode:lr-tb;text-anchor:middle;fill:#000000;fill-opacity:1;stroke:none;font-family:Sans;-inkscape-font-specification:Sans"
         x="33.335033"
         y="287.17163"
         id="text3050"
         sodipodi:linespacing="125%"
         transform="translate(-64.357032,55.665753)"><tspan
           sodipodi:role="line"
           id="tspan3052"
           x="33.335033"
           y="287.17163" /></text>
      <text
         xml:space="preserve"
         style="font-size:40px;font-style:normal;font-variant:normal;font-weight:normal;font-stretch:normal;text-align:center;line-height:125%;letter-spacing:0px;word-spacing:0px;writing-mode:lr-tb;text-anchor:middle;fill:#000000;fill-opacity:1;stroke:none;font-family:Paella;-inkscape-font-specification:Paella"
         x="46.972092"
         y="287.6767"
         id="text3054"
         sodipodi:linespacing="125%"
         transform="translate(-64.357032,55.665753)"><tspan
           sodipodi:role="line"
           id="tspan3056"
           x="46.972092"
           y="287.6767" /></text>
      <text
         xml:space="preserve"
         style="font-size:40px;font-style:normal;font-variant:normal;font-weight:normal;font-stretch:normal;text-align:center;line-height:125%;letter-spacing:0px;word-spacing:0px;writing-mode:lr-tb;text-anchor:middle;fill:#000000;fill-opacity:1;stroke:none;font-family:TG Pagella Math;-inkscape-font-specification:TG Pagella Math"
         x="-84.34774"
         y="215.95587"
         id="text3058"
         sodipodi:linespacing="125%"
         transform="translate(-64.357032,55.665753)"><tspan
           sodipodi:role="line"
           id="tspan3060"
           x="-84.34774"
           y="215.95587" /><tspan
           sodipodi:role="line"
           id="tspan3062"
           x="-84.34774"
           y="265.95587" /></text>
    </g>
    <g
       id="g3067"
       transform="translate(11.654453,8.3202457)"
       style="fill:#ffffff">
      <g
         transform="translate(64.357032,-55.66575)"
         style="font-size:47.83852768px;font-style:normal;font-variant:normal;font-weight:normal;font-stretch:normal;text-align:center;line-height:125%;letter-spacing:0px;word-spacing:0px;writing-mode:lr-tb;text-anchor:middle;fill:#ffffff;fill-opacity:1;stroke:none;font-family:TG Pagella Math;-inkscape-font-specification:TG Pagella Math"
         id="text3064" />
      <g
         transform="translate(64.357032,-55.66575)"
         style="font-size:43.36927414px;font-style:normal;font-variant:normal;font-weight:normal;font-stretch:normal;text-align:center;line-height:125%;letter-spacing:0px;word-spacing:0px;writing-mode:lr-tb;text-anchor:middle;fill:#ffffff;fill-opacity:1;stroke:none;font-family:TG Pagella Math;-inkscape-font-specification:TG Pagella Math"
         id="text3068" />
      <g
         transform="translate(64.357032,-55.66575)"
         style="font-size:41.9357338px;font-style:normal;font-variant:normal;font-weight:normal;font-stretch:normal;text-align:center;line-height:125%;letter-spacing:0px;word-spacing:0px;writing-mode:lr-tb;text-anchor:middle;fill:#ffffff;fill-opacity:1;stroke:none;font-family:TG Pagella Math;-inkscape-font-specification:TG Pagella Math"
         id="text3072" />
      <g
         transform="translate(64.357032,-55.66575)"
         style="font-size:40px;font-style:normal;font-variant:normal;font-weight:normal;font-stretch:normal;text-align:center;line-height:125%;letter-spacing:0px;word-spacing:0px;writing-mode:lr-tb;text-anchor:middle;fill:#ffffff;fill-opacity:1;stroke:none;font-family:TG Pagella Math;-inkscape-font-specification:TG Pagella Math"
         id="text3076" />
      <g
         transform="translate(64.357032,-55.66575)"
         style="font-size:40.56420517px;font-style:normal;font-variant:normal;font-weight:normal;font-stretch:normal;text-align:center;line-height:125%;letter-spacing:0px;word-spacing:0px;writing-mode:lr-tb;text-anchor:middle;fill:#ffffff;fill-opacity:1;stroke:none;font-family:TG Pagella Math;-inkscape-font-specification:TG Pagella Math"
         id="text3080" />
      <g
         style="font-size:71.24932098px;font-style:normal;font-variant:normal;font-weight:normal;font-stretch:normal;text-align:center;line-height:125%;letter-spacing:0px;word-spacing:0px;writing-mode:lr-tb;text-anchor:middle;fill:#ffffff;fill-opacity:1;stroke:none;font-family:TG Pagella Math;-inkscape-font-specification:TG Pagella Math"
         id="text3046">
        <path
           id="path3059"
           style=""
           d="m 59.376462,264.78901 c 0,-6.83993 -5.557456,-11.04364 -14.606111,-11.04364 -4.061207,0 -8.051177,0.21374 -12.112384,0.21374 l -12.967377,-0.21374 0,2.13748 3.20622,0.21374 c 3.206216,0.21375 3.776214,1.14 3.776214,6.41244 l 0,31.99095 c 0,5.62869 -0.35625,6.19869 -3.633716,6.41244 l -3.419967,0.21374 0,2.13748 10.402401,-0.21374 10.47365,0.21374 0,-2.13748 -3.419967,-0.21374 c -3.277466,-0.21375 -3.633716,-0.78375 -3.633716,-6.41244 l 0,-37.19215 c 2.493724,-0.56999 4.559959,-0.85499 6.982434,-0.85499 7.694919,0 11.827387,3.56247 11.827387,10.33115 0,6.41243 -4.346215,10.90115 -10.5449,10.90115 -1.496234,0 -2.564977,-0.1425 -4.417457,-0.7125 l 0.712493,2.56498 c 1.709982,0.35625 2.707475,0.4275 4.13246,0.4275 9.761148,0 17.242336,-6.6262 17.242336,-15.17611 m 118.753618,19.54681 -5.5573,0.24338 0,-1.54144 c 0,-1.70369 0.12169,-3.16401 0.44621,-5.76011 l -0.48677,-0.44621 c -0.97354,0.60846 -2.19047,1.1358 -3.44796,1.54144 0.12169,1.21692 0.16226,1.98765 0.16226,3.20457 l 0,2.8395 -3.16401,1.41974 0,0.85185 3.08288,-0.16226 0,11.6825 c 0,3.00174 1.33862,4.2998 4.46206,4.2998 0.93298,0 1.90652,-0.20282 2.1499,-0.48677 l 1.94708,-2.1499 -0.52733,-0.68959 c -1.0141,0.56789 -1.62257,0.77072 -2.39329,0.77072 -1.582,0 -2.23103,-0.81129 -2.23103,-2.79893 l 0,-10.62783 5.19222,0 0.36508,-2.19046 m -16.56479,8.20599 c 0,-5.39999 -3.92,-9.28 -9.4,-9.28 -5.83999,0 -9.88,4.12001 -9.88,10.08 0,5.64 3.56001,9.48 8.72,9.48 6.16,0 10.56,-4.28 10.56,-10.28 m -3.72,1.48 c 0,4.6 -2.04,7.48 -5.28,7.48 -3.91999,0 -6.56,-3.84 -6.56,-9.52 0,-4.79999 1.92001,-7.4 5.44,-7.4 3.68,0 6.4,4.00001 6.4,9.44 m -20.0772,-3.32265 c 0,-4.86454 -3.14519,-8.34521 -7.59037,-8.34521 -1.97098,0 -4.02583,0.75485 -5.11616,1.84517 l -2.30646,2.34841 0,-14.63558 -0.37743,-0.33548 c -1.84517,0.71291 -3.22905,1.04839 -6.54197,1.55162 l 0,1.1742 2.3484,0 c 0.75484,0 1.04839,0.4613 1.04839,1.71937 l 0,19.58398 c 0,2.60002 -0.0419,3.73229 -0.33548,6.66779 l 0.67097,0.25161 1.67743,-1.50969 c 1.67743,1.09033 3.18712,1.50969 5.40971,1.50969 1.63549,0 2.72582,-0.29355 3.60647,-0.92259 l 4.19358,-3.01937 c 1.84517,-1.34194 3.31292,-4.82261 3.31292,-7.88392 m -3.64841,1.71937 c 0,4.6968 -2.51615,7.96779 -6.08068,7.96779 -2.18066,0 -5.2839,-1.34195 -5.2839,-2.26453 l 0,-9.01618 c 0,-0.5871 0.41935,-1.34195 1.09033,-2.09679 1.17419,-1.21614 2.80969,-1.92905 4.52905,-1.92905 3.5226,0 5.7452,2.85164 5.7452,7.33876 m -21.78879,-9.08888 0,-1.21434 c -1.38782,0.0867 -2.73227,0.13011 -4.12008,0.13011 -1.38782,0 -2.73227,-0.0434 -4.12009,-0.13011 l 0,1.21434 1.12761,0.0867 c 1.8215,0.13011 2.21183,0.65054 1.56129,2.21184 l -5.16094,12.66382 c -0.95413,-1.64803 -1.38782,-2.64552 -2.211837,-4.77062 l -2.775634,-7.28603 c -0.737277,-1.90821 -0.650537,-2.73223 1.040863,-2.81897 l 1.648032,-0.0867 0,-1.21434 -5.030836,0.13011 -5.030836,-0.13011 0,1.21434 0.780647,0.0867 c 1.084231,0.13011 1.648033,0.60717 2.255203,2.1251 l 7.15593,17.52118 -0.997494,2.64553 c -1.387815,3.64301 -3.07922,5.68137 -4.72725,5.68137 -0.693908,0 -1.474556,-0.34695 -2.211833,-0.99749 l -0.563801,0 -1.040863,3.2527 c 0.824016,0.43369 1.517926,0.65054 2.341941,0.65054 2.905739,0 4.770622,-1.5613 6.418653,-5.33443 l 8.803965,-20.29682 c 1.73477,-3.9466 2.55879,-5.16094 3.64302,-5.24768 l 1.21434,-0.0867 m -22.469766,18.83564 0,-1.43516 -1.96138,-0.14351 c -1.626508,-0.0957 -1.770025,-0.38272 -1.770025,-3.44438 l 0,-9.23283 c 0,-5.59711 -2.631125,-8.32391 -7.989035,-8.32391 -1.770023,0 -2.774635,0.33487 -3.779243,1.19596 l -3.635728,3.15735 0,-16.2651 -0.430547,-0.38271 c -2.104893,0.81325 -3.68357,1.19596 -7.46281,1.77003 l 0,1.33947 2.678957,0 c 0.861093,0 1.195963,0.52623 1.195963,1.96138 l 0,24.78036 c 0,3.01383 -0.143517,3.3487 -1.770025,3.44438 l -2.152734,0.14351 0,1.43516 5.931977,-0.14352 5.931978,0.14352 0,-1.43516 -2.152734,-0.14351 c -1.626508,-0.0957 -1.770025,-0.43055 -1.770025,-3.44438 l 0,-10.14177 c 0,-2.15273 3.157345,-4.49682 6.075493,-4.49682 3.205178,0 5.310076,2.39193 5.310076,6.07549 l 0,13.58615 c 1.243801,-0.0957 2.535443,-0.14352 3.779244,-0.14352 1.339477,0 2.63112,0.0478 3.970598,0.14352" />
      </g>
    </g>
  </g>
</svg>
