<?xml version="1.0" encoding="UTF-8" standalone="no"?>
<!-- Created with Inkscape (http://www.inkscape.org/) -->

<svg
   xmlns:dc="http://purl.org/dc/elements/1.1/"
   xmlns:cc="http://creativecommons.org/ns#"
   xmlns:rdf="http://www.w3.org/1999/02/22-rdf-syntax-ns#"
   xmlns:svg="http://www.w3.org/2000/svg"
   xmlns="http://www.w3.org/2000/svg"
   xmlns:sodipodi="http://sodipodi.sourceforge.net/DTD/sodipodi-0.dtd"
   xmlns:inkscape="http://www.inkscape.org/namespaces/inkscape"
   width="727.99695"
   height="362.81641"
   id="svg2"
   version="1.1"
   inkscape:version="0.48.4 r9939"
   sodipodi:docname="saturn.svg">
  <defs
     id="defs4" />
  <sodipodi:namedview
     id="base"
     pagecolor="#ffffff"
     bordercolor="#666666"
     borderopacity="1.0"
     inkscape:pageopacity="0.0"
     inkscape:pageshadow="2"
     inkscape:zoom="1.4142136"
     inkscape:cx="401.32338"
     inkscape:cy="134.33899"
     inkscape:document-units="px"
     inkscape:current-layer="layer1"
     showgrid="false"
     fit-margin-top="0"
     fit-margin-left="0"
     fit-margin-right="0"
     fit-margin-bottom="0"
     inkscape:window-width="1920"
     inkscape:window-height="1056"
     inkscape:window-x="0"
     inkscape:window-y="24"
     inkscape:window-maximized="1" />
  <metadata
     id="metadata7">
    <rdf:RDF>
      <cc:Work
         rdf:about="">
        <dc:format>image/svg+xml</dc:format>
        <dc:type
           rdf:resource="http://purl.org/dc/dcmitype/StillImage" />
        <dc:title />
      </cc:Work>
    </rdf:RDF>
  </metadata>
  <g
     inkscape:label="Layer 1"
     inkscape:groupmode="layer"
     id="layer1"
     transform="translate(-9.0405453,-211.43173)">
    <path
       style="fill:#00d400;fill-opacity:1;stroke:none"
       d="m 397.62519,211.43173 0.0156,40.34766 c 67.46028,11.12691 118.90625,69.70018 118.90625,140.3125 0,17.35917 -3.08805,33.99444 -8.78125,49.375 l 34.93753,20.15625 c 8.85761,-21.42649 13.75,-44.9065 13.75,-69.53125 0,-92.69176 -69.24764,-169.21137 -158.82813,-180.66016 z m 121.98438,290.48047 -34.875,-20.16406 c -26.08299,32.08129 -65.87173,52.59374 -110.4375,52.59375 -44.30088,-1e-5 -83.84798,-20.27777 -109.9375,-52.03125 l -34.9375,20.15625 c 33.27267,43.61673 85.78095,71.78123 144.875,71.78125 59.34356,-1e-5 112.05383,-28.40406 145.3125,-72.33594 z m -313.39453,-39.63276 34.89453,-20.15625 c -5.84951,-15.56414 -9.06249,-32.42373 -9.0625,-50.03125 3e-5,-70.68868 51.58839,-129.3076 119.15625,-140.34375 l 0.0117,-40.30859 c -89.68295,11.35151 -159.04293,87.88469 -159.04297,180.65234 0,24.87577 5.01627,48.58507 14.04297,70.1875 z"
       id="path2987"
       inkscape:connector-curvature="0"
       sodipodi:nodetypes="ccsccscccsccscccsccsc" />
    <path
       sodipodi:nodetypes="ccsccscccsccscccsccsc"
       inkscape:connector-curvature="0"
       id="path3001"
       d="m 83.770083,211.43173 69.821247,40.34766 c 86.71098,11.12691 239.49486,69.70018 361.66154,140.3125 30.03317,17.35917 55.72582,33.99444 76.64262,49.375 l 69.80996,20.15625 C 633.49299,440.19665 597.76248,416.71664 555.15915,392.09189 394.79271,299.40013 193.15818,222.88052 83.770083,211.43173 z M 708.31597,501.9122 638.55501,481.74814 c 29.42103,32.08129 25.12094,52.59374 -19.44483,52.59375 -44.30088,-1e-5 -118.93061,-20.27777 -199.95696,-52.03125 l -0.0651,20.15625 c 108.73418,43.61673 209.96999,71.78123 269.06407,71.78125 59.34353,-1e-5 62.91185,-28.40406 20.16378,-72.33594 z m -381.96334,-39.63276 0.0221,-20.15625 C 293.59763,426.55905 261.21581,409.69946 230.75293,392.09194 108.45418,321.40326 58.625704,262.78434 107.09987,251.74819 L 37.373473,211.4396 c -70.043635,11.35151 -6.993216,87.88469 153.504437,180.65234 43.03769,24.87577 89.07352,48.58507 135.4747,70.1875 z"
       style="fill:#c83737;fill-opacity:1;stroke:none" />
    <path
       style="fill:#0000ff;fill-opacity:1;stroke:none"
       d="m 83.770083,211.43173 69.821247,40.34766 c 86.71098,11.12691 239.49486,69.70018 361.66154,140.3125 30.03317,17.35917 55.72582,33.99444 76.64262,49.375 l 69.80996,20.15625 C 633.49299,440.19665 597.76248,416.71664 555.15915,392.09189 394.79271,299.40013 193.15818,222.88052 83.770083,211.43173 z M 708.31597,501.9122 638.55501,481.74814 c 29.42103,32.08129 25.12094,52.59374 -19.44483,52.59375 -44.30088,-1e-5 -118.93061,-20.27777 -199.95696,-52.03125 l -0.0651,20.15625 c 108.73418,43.61673 209.96999,71.78123 269.06407,71.78125 59.34353,-1e-5 62.91185,-28.40406 20.16378,-72.33594 z m -381.96334,-39.63276 0.0221,-20.15625 C 293.59763,426.55905 261.21581,409.69946 230.75293,392.09194 108.45418,321.40326 58.625704,262.78434 107.09987,251.74819 L 37.373473,211.4396 c -70.043635,11.35151 -6.993216,87.88469 153.504437,180.65234 43.03769,24.87577 89.07352,48.58507 135.4747,70.1875 z"
       id="path3003"
       inkscape:connector-curvature="0"
       sodipodi:nodetypes="ccsccscccsccscccsccsc" />
  </g>
</svg>
