<?xml version="1.0" encoding="UTF-8" standalone="no"?>
<!-- Created with Inkscape (http://www.inkscape.org/) -->

<svg
   xmlns:dc="http://purl.org/dc/elements/1.1/"
   xmlns:cc="http://creativecommons.org/ns#"
   xmlns:rdf="http://www.w3.org/1999/02/22-rdf-syntax-ns#"
   xmlns:svg="http://www.w3.org/2000/svg"
   xmlns="http://www.w3.org/2000/svg"
   xmlns:sodipodi="http://sodipodi.sourceforge.net/DTD/sodipodi-0.dtd"
   xmlns:inkscape="http://www.inkscape.org/namespaces/inkscape"
   width="166.5"
   height="166.5"
   id="svg2"
   version="1.1"
   inkscape:version="0.48.4 r9939"
   sodipodi:docname="phybotwithtextwhite.svg"
   inkscape:export-filename="/home/chris/Desktop/phybotwithtextwhite.png"
   inkscape:export-xdpi="114.05544"
   inkscape:export-ydpi="114.05544">
  <defs
     id="defs4" />
  <sodipodi:namedview
     id="base"
     pagecolor="#ffffff"
     bordercolor="#666666"
     borderopacity="1.0"
     inkscape:pageopacity="0.0"
     inkscape:pageshadow="2"
     inkscape:zoom="2.575287"
     inkscape:cx="70.816019"
     inkscape:cy="100.12664"
     inkscape:document-units="px"
     inkscape:current-layer="layer1"
     showgrid="false"
     fit-margin-top="0"
     fit-margin-left="0"
     fit-margin-right="0"
     fit-margin-bottom="0"
     inkscape:window-width="650"
     inkscape:window-height="716"
     inkscape:window-x="715"
     inkscape:window-y="24"
     inkscape:window-maximized="0" />
  <metadata
     id="metadata7">
    <rdf:RDF>
      <cc:Work
         rdf:about="">
        <dc:format>image/svg+xml</dc:format>
        <dc:type
           rdf:resource="http://purl.org/dc/dcmitype/StillImage" />
        <dc:title></dc:title>
      </cc:Work>
    </rdf:RDF>
  </metadata>
  <g
     inkscape:label="Layer 1"
     inkscape:groupmode="layer"
     id="layer1"
     transform="translate(-170.67,-160.81692)">
    <g
       transform="translate(75.785603,-94.899028)"
       id="layer1-9"
       inkscape:label="Layer 1">
      <g
         id="g3006">
        <path
           style="fill:#00d400;fill-opacity:1;stroke:none"
           d="m 184.33172,295.17286 0.004,10.24165 c 17.12378,2.8244 30.18257,17.69235 30.18257,35.61623 0,4.40637 -0.78385,8.62899 -2.22899,12.53311 l 8.86837,5.11636 c 2.24837,-5.43879 3.49023,-11.39884 3.49023,-17.64947 0,-23.52842 -17.57748,-42.95178 -40.31614,-45.85788 z m 30.96391,73.73413 -8.8525,-5.11835 c -6.62078,8.14336 -16.72055,13.35014 -28.03291,13.35014 -11.24512,0 -21.28356,-5.14721 -27.90599,-13.20735 l -8.86837,5.11636 c 8.44578,11.07146 21.77422,18.22059 36.77436,18.2206 15.06348,0 28.44319,-7.20995 36.88541,-18.3614 z m -79.55052,-10.06018 8.85745,-5.11637 c -1.48481,-3.95072 -2.30038,-8.23028 -2.30038,-12.69968 1e-5,-17.94327 13.09494,-32.82281 30.24604,-35.62417 l 0.003,-10.23173 c -22.76468,2.88141 -40.37068,22.30821 -40.37069,45.8559 0,6.31434 1.27331,12.33259 3.5646,17.81605 z"
           id="path2987"
           inkscape:connector-curvature="0"
           sodipodi:nodetypes="ccsccscccsccscccsccsc" />
        <path
           sodipodi:nodetypes="ccsccscccsccscccsccsc"
           inkscape:connector-curvature="0"
           id="path3001"
           d="m 115.37989,295.17286 15.33978,10.24165 c 21.35303,2.8244 56.67508,17.69235 83.51427,35.61623 6.59808,4.40637 12.13715,8.62899 16.53804,12.53311 l 16.52962,5.11636 c -5.89568,-5.43879 -13.57839,-11.39884 -22.93805,-17.64947 -35.23142,-23.52842 -81.89339,-42.95178 -108.98366,-45.85788 z m 141.37326,73.73413 -16.51672,-5.11835 c 5.57307,8.14336 3.26993,13.35014 -8.04243,13.35014 -11.24512,0 -28.99098,-5.14721 -47.68267,-13.20735 l -1.20711,5.11636 c 25.02415,11.07146 49.05769,18.22059 64.05785,18.2206 15.06346,0 17.64702,-7.20995 9.3911,-18.3614 z m -94.61464,-10.06018 1.19662,-5.11637 c -7.40063,-3.95072 -14.62439,-8.23028 -21.31688,-12.69968 -26.86819,-17.94327 -36.05384,-32.82281 -23.09751,-35.62417 l -15.31801,-10.23173 c -18.450051,2.88141 -6.966391,22.30821 28.29385,45.8559 9.45509,6.31434 19.74011,12.33259 30.24231,17.81605 z"
           style="fill:#0000ff;fill-opacity:1;stroke:none" />
      </g>
      <text
         xml:space="preserve"
         style="font-size:40px;font-style:normal;font-variant:normal;font-weight:normal;font-stretch:normal;text-align:center;line-height:125%;letter-spacing:0px;word-spacing:0px;writing-mode:lr-tb;text-anchor:middle;fill:#000000;fill-opacity:1;stroke:none;font-family:TG Pagella Math;-inkscape-font-specification:TG Pagella Math"
         x="50.834007"
         y="348.3746"
         id="text3020"
         sodipodi:linespacing="125%"><tspan
           sodipodi:role="line"
           id="tspan3022"
           x="50.834007"
           y="348.3746" /></text>
      <text
         xml:space="preserve"
         style="font-size:40px;font-style:normal;font-variant:normal;font-weight:normal;font-stretch:normal;text-align:center;line-height:125%;letter-spacing:0px;word-spacing:0px;writing-mode:lr-tb;text-anchor:middle;fill:#000000;fill-opacity:1;stroke:none;font-family:Sans;-inkscape-font-specification:Sans"
         x="33.335033"
         y="287.17163"
         id="text3050"
         sodipodi:linespacing="125%"
         transform="translate(-64.357032,55.665753)"><tspan
           sodipodi:role="line"
           id="tspan3052"
           x="33.335033"
           y="287.17163" /></text>
      <text
         xml:space="preserve"
         style="font-size:40px;font-style:normal;font-variant:normal;font-weight:normal;font-stretch:normal;text-align:center;line-height:125%;letter-spacing:0px;word-spacing:0px;writing-mode:lr-tb;text-anchor:middle;fill:#000000;fill-opacity:1;stroke:none;font-family:Paella;-inkscape-font-specification:Paella"
         x="46.972092"
         y="287.6767"
         id="text3054"
         sodipodi:linespacing="125%"
         transform="translate(-64.357032,55.665753)"><tspan
           sodipodi:role="line"
           id="tspan3056"
           x="46.972092"
           y="287.6767" /></text>
      <text
         xml:space="preserve"
         style="font-size:40px;font-style:normal;font-variant:normal;font-weight:normal;font-stretch:normal;text-align:center;line-height:125%;letter-spacing:0px;word-spacing:0px;writing-mode:lr-tb;text-anchor:middle;fill:#000000;fill-opacity:1;stroke:none;font-family:TG Pagella Math;-inkscape-font-specification:TG Pagella Math"
         x="-84.34774"
         y="215.95587"
         id="text3058"
         sodipodi:linespacing="125%"
         transform="translate(-64.357032,55.665753)"><tspan
           sodipodi:role="line"
           id="tspan3060"
           x="-84.34774"
           y="215.95587" /><tspan
           sodipodi:role="line"
           id="tspan3062"
           x="-84.34774"
           y="265.95587" /></text>
    </g>
  </g>
</svg>
